<svg id="svg" version="1.1" xmlns="http://www.w3.org/2000/svg" xmlns:xlink="http://www.w3.org/1999/xlink" width="400" height="374.5152354570637" viewBox="0, 0, 400,374.5152354570637"><g id="svgg"><path id="path0" d="M67.363 31.860 C 64.719 33.201,63.525 37.166,65.019 39.643 C 65.780 40.905,67.127 41.936,82.946 53.371 C 85.796 55.431,90.545 58.886,93.500 61.049 C 96.455 63.212,100.179 65.935,101.777 67.100 C 106.994 70.907,111.627 70.019,112.562 65.032 C 113.238 61.429,112.680 60.728,104.307 54.662 C 102.041 53.021,98.620 50.542,96.705 49.153 C 94.790 47.765,92.056 45.787,90.629 44.757 C 89.202 43.727,84.770 40.500,80.780 37.587 C 71.060 30.490,70.519 30.258,67.363 31.860 M339.513 31.955 C 337.763 32.960,335.099 34.812,330.842 37.986 C 329.163 39.238,327.393 40.545,326.909 40.890 C 326.426 41.236,323.586 43.297,320.599 45.472 C 317.612 47.646,313.012 50.987,310.377 52.896 C 301.374 59.417,300.771 59.913,300.002 61.419 C 298.093 65.161,300.800 69.476,305.056 69.476 C 307.215 69.476,307.862 69.057,323.569 57.491 C 325.807 55.843,328.009 54.242,328.462 53.933 C 328.914 53.624,331.698 51.601,334.648 49.438 C 337.597 47.275,341.449 44.462,343.207 43.187 C 347.829 39.836,348.873 37.436,347.084 34.277 C 345.436 31.369,342.242 30.389,339.513 31.955 M199.625 38.623 C 196.845 38.797,193.558 39.110,192.322 39.319 C 191.086 39.527,188.900 39.881,187.464 40.105 C 186.029 40.328,184.565 40.666,184.212 40.855 C 183.859 41.044,183.250 41.199,182.859 41.199 C 182.060 41.199,178.605 42.211,173.596 43.913 C 149.134 52.225,126.367 73.535,116.675 97.191 C 115.915 99.045,115.055 101.115,114.763 101.792 C 114.471 102.468,114.232 103.201,114.232 103.421 C 114.232 103.640,113.990 104.350,113.694 105.000 C 112.821 106.917,111.584 111.569,110.642 116.479 C 105.788 141.801,109.754 160.713,125.370 186.704 C 130.225 194.785,130.300 194.902,138.252 206.790 C 150.204 224.658,153.181 231.019,154.442 241.386 C 155.080 246.625,156.664 248.530,160.337 248.475 C 166.359 248.385,167.416 241.929,163.490 229.213 C 161.956 224.244,157.324 215.058,153.009 208.427 C 148.660 201.744,141.732 191.217,138.959 187.079 C 137.165 184.401,135.225 181.367,134.649 180.337 C 134.073 179.307,133.115 177.622,132.522 176.592 C 121.326 157.163,118.143 140.976,121.512 120.599 C 123.898 106.164,131.815 89.553,141.070 79.562 C 141.656 78.929,142.749 77.727,143.499 76.890 C 160.227 58.226,189.408 47.211,214.232 50.190 C 220.680 50.964,223.191 51.371,226.030 52.103 C 227.678 52.528,229.700 53.032,230.524 53.224 C 231.348 53.415,232.360 53.721,232.772 53.903 C 233.184 54.085,234.616 54.613,235.955 55.076 C 255.271 61.761,274.283 79.005,283.417 98.127 C 286.056 103.653,286.517 104.722,286.517 105.319 C 286.517 105.607,286.659 106.003,286.832 106.199 C 287.679 107.155,290.392 117.508,291.023 122.189 C 294.273 146.320,289.702 162.336,271.930 189.101 C 258.160 209.838,255.674 213.836,252.303 220.669 C 249.868 225.607,247.733 231.868,247.156 235.768 C 246.943 237.210,246.605 239.448,246.405 240.741 C 245.435 247.023,251.169 250.847,255.763 246.982 C 257.086 245.869,257.552 244.547,257.871 241.011 C 258.669 232.150,262.552 223.775,273.415 207.491 C 282.377 194.056,283.358 192.569,284.444 190.781 C 285.055 189.775,286.621 187.201,287.924 185.062 C 290.752 180.420,295.596 170.612,297.717 165.232 C 299.370 161.043,299.921 159.211,301.341 153.184 C 301.851 151.021,302.449 148.493,302.671 147.566 C 304.798 138.681,302.876 118.404,298.730 105.993 C 296.084 98.068,295.994 97.844,293.417 92.697 C 279.192 64.287,255.061 46.253,222.472 39.676 C 217.698 38.712,206.452 38.194,199.625 38.623 M198.689 69.292 C 194.148 69.811,187.447 71.197,186.130 71.888 C 185.814 72.054,184.977 72.317,184.270 72.472 C 183.562 72.627,182.725 72.889,182.409 73.052 C 182.094 73.216,179.841 74.289,177.403 75.436 C 154.872 86.039,139.543 109.268,139.357 133.089 C 139.310 139.249,140.636 141.252,144.764 141.252 C 148.907 141.252,150.560 139.193,150.564 134.026 C 150.568 129.861,152.259 120.558,153.515 117.790 C 153.702 117.378,154.219 116.114,154.663 114.981 C 162.637 94.646,180.837 82.041,204.892 80.192 C 211.366 79.695,213.963 75.033,210.156 70.741 L 208.701 69.101 205.006 69.046 C 202.974 69.016,200.131 69.127,198.689 69.292 M36.399 130.333 C 31.756 131.432,30.769 138.173,34.889 140.637 C 36.800 141.779,84.877 141.811,86.761 140.671 C 90.879 138.179,89.850 131.405,85.189 130.324 C 83.395 129.908,38.160 129.916,36.399 130.333 M326.857 130.288 C 323.200 131.115,321.622 135.975,323.970 139.180 C 325.664 141.494,324.314 141.386,351.482 141.386 L 376.217 141.386 377.440 140.514 C 381.476 137.635,380.141 130.991,375.368 130.202 C 373.539 129.899,328.218 129.980,326.857 130.288 M105.056 202.372 C 103.968 202.867,100.706 205.150,93.225 210.654 C 91.249 212.107,87.071 215.150,83.940 217.416 C 80.808 219.682,76.357 222.916,74.048 224.603 C 71.739 226.290,68.963 228.313,67.878 229.098 C 63.100 232.554,63.181 237.251,68.066 239.981 C 70.186 241.166,71.682 240.589,77.534 236.330 C 79.656 234.785,83.346 232.099,85.734 230.362 C 115.118 208.978,112.547 211.154,112.547 207.669 C 112.547 203.453,108.684 200.722,105.056 202.372 M303.371 202.123 C 297.399 204.575,298.046 209.989,304.863 214.607 C 305.320 214.916,307.656 216.615,310.056 218.382 C 312.456 220.150,317.537 223.846,321.348 226.597 C 325.159 229.348,329.649 232.621,331.325 233.871 C 333.002 235.120,334.748 236.395,335.207 236.704 C 335.666 237.013,336.738 237.777,337.590 238.401 C 341.579 241.325,345.075 240.903,347.067 237.255 C 349.545 232.719,349.639 232.811,322.812 213.483 C 320.096 211.526,317.327 209.462,316.659 208.895 C 315.991 208.329,315.345 207.865,315.224 207.865 C 315.103 207.865,313.692 206.891,312.090 205.699 C 307.368 202.189,305.288 201.336,303.371 202.123 M157.449 268.504 C 153.735 270.768,153.705 276.030,157.394 278.279 C 158.583 279.004,159.335 279.023,186.361 279.025 C 201.621 279.026,214.219 279.138,214.355 279.274 C 214.856 279.774,213.057 280.475,202.060 284.060 C 195.880 286.074,190.487 287.857,190.075 288.022 C 189.663 288.187,187.556 288.904,185.393 289.616 C 183.230 290.327,180.112 291.366,178.464 291.924 C 176.816 292.481,173.361 293.610,170.787 294.432 C 168.212 295.254,165.768 296.074,165.356 296.255 C 164.944 296.435,163.427 296.951,161.985 297.400 C 156.087 299.236,154.680 300.503,154.683 303.977 C 154.685 307.093,157.042 309.733,159.823 309.736 C 161.356 309.738,254.114 278.840,255.466 277.877 C 258.456 275.748,258.158 270.572,254.930 268.577 L 253.657 267.790 206.136 267.792 C 160.132 267.793,158.577 267.816,157.449 268.504 M251.124 298.406 C 250.712 298.507,230.440 305.227,206.075 313.340 C 181.711 321.452,161.613 328.090,161.413 328.090 C 157.062 328.090,153.198 333.969,155.314 337.373 C 156.169 338.749,161.582 343.446,162.312 343.446 C 162.421 343.446,163.259 343.951,164.175 344.570 C 166.216 345.947,172.549 349.086,175.094 349.982 C 176.124 350.344,177.303 350.780,177.715 350.949 C 190.248 356.105,212.794 356.817,228.991 352.569 C 241.494 349.290,255.963 340.929,257.281 336.223 C 258.340 332.439,255.973 329.212,252.141 329.215 C 249.777 329.218,249.501 329.355,245.246 332.634 C 242.787 334.530,237.998 337.229,234.457 338.714 C 233.736 339.017,232.341 339.608,231.357 340.027 C 229.265 340.920,223.019 342.500,219.281 343.083 C 210.080 344.516,204.688 344.525,193.412 343.126 C 185.299 342.119,171.139 336.720,174.220 335.808 C 176.493 335.135,180.386 333.874,182.397 333.159 C 183.736 332.683,193.933 329.306,205.056 325.654 C 216.180 322.002,225.618 318.877,226.030 318.709 C 226.442 318.540,228.633 317.797,230.899 317.056 C 256.437 308.705,256.477 308.687,257.321 305.552 C 258.372 301.650,254.782 297.511,251.124 298.406 " stroke="none" fill="#f4753d" fill-rule="evenodd"></path><path id="path1" d="M196.348 38.460 C 196.709 38.555,197.299 38.555,197.659 38.460 C 198.020 38.366,197.725 38.289,197.004 38.289 C 196.283 38.289,195.988 38.366,196.348 38.460 M214.326 38.460 C 214.686 38.555,215.276 38.555,215.637 38.460 C 215.997 38.366,215.702 38.289,214.981 38.289 C 214.260 38.289,213.965 38.366,214.326 38.460 M203.839 50.071 C 204.199 50.165,204.789 50.165,205.150 50.071 C 205.510 49.977,205.215 49.900,204.494 49.900 C 203.773 49.900,203.478 49.977,203.839 50.071 M207.027 50.078 C 207.493 50.167,208.167 50.164,208.525 50.070 C 208.883 49.976,208.502 49.903,207.678 49.907 C 206.854 49.911,206.561 49.988,207.027 50.078 M199.345 50.445 C 199.705 50.540,200.295 50.540,200.655 50.445 C 201.016 50.351,200.721 50.274,200.000 50.274 C 199.279 50.274,198.984 50.351,199.345 50.445 M211.521 50.452 C 211.987 50.542,212.661 50.538,213.019 50.445 C 213.377 50.351,212.996 50.278,212.172 50.282 C 211.348 50.286,211.055 50.363,211.521 50.452 M138.740 64.888 L 137.640 66.105 138.858 65.005 C 139.992 63.979,140.247 63.670,139.958 63.670 C 139.893 63.670,139.346 64.218,138.740 64.888 M135.193 68.446 L 133.146 70.599 135.300 68.552 C 137.300 66.650,137.625 66.292,137.347 66.292 C 137.288 66.292,136.319 67.261,135.193 68.446 M201.409 68.804 C 201.875 68.894,202.549 68.890,202.907 68.797 C 203.265 68.703,202.884 68.630,202.060 68.634 C 201.236 68.638,200.943 68.715,201.409 68.804 M106.461 69.921 C 106.821 70.015,107.411 70.015,107.772 69.921 C 108.132 69.827,107.837 69.750,107.116 69.750 C 106.395 69.750,106.100 69.827,106.461 69.921 M304.588 69.921 C 304.949 70.015,305.538 70.015,305.899 69.921 C 306.259 69.827,305.964 69.750,305.243 69.750 C 304.522 69.750,304.228 69.827,304.588 69.921 M202.715 80.783 C 203.076 80.877,203.666 80.877,204.026 80.783 C 204.387 80.688,204.092 80.611,203.371 80.611 C 202.650 80.611,202.355 80.688,202.715 80.783 M158.416 88.296 L 155.993 90.824 158.521 88.400 C 160.869 86.149,161.220 85.768,160.944 85.768 C 160.887 85.768,159.749 86.905,158.416 88.296 M303.473 127.715 C 303.473 128.642,303.546 129.022,303.635 128.558 C 303.724 128.095,303.724 127.336,303.635 126.873 C 303.546 126.409,303.473 126.788,303.473 127.715 M120.701 128.464 C 120.701 129.391,120.774 129.771,120.864 129.307 C 120.953 128.844,120.953 128.085,120.864 127.622 C 120.774 127.158,120.701 127.537,120.701 128.464 M48.810 129.869 C 55.571 129.926,66.526 129.926,73.155 129.869 C 79.783 129.811,74.251 129.765,60.861 129.765 C 47.472 129.765,42.049 129.812,48.810 129.869 M339.045 129.869 C 345.791 129.926,356.831 129.926,363.577 129.869 C 370.323 129.812,364.803 129.765,351.311 129.765 C 337.818 129.765,332.299 129.812,339.045 129.869 M291.488 131.835 C 291.488 132.762,291.561 133.141,291.650 132.678 C 291.739 132.214,291.739 131.456,291.650 130.993 C 291.561 130.529,291.488 130.908,291.488 131.835 M31.930 135.768 C 31.934 136.592,32.011 136.885,32.100 136.419 C 32.190 135.953,32.186 135.279,32.093 134.921 C 31.999 134.563,31.925 134.944,31.930 135.768 M108.334 135.768 C 108.338 136.592,108.415 136.885,108.505 136.419 C 108.594 135.953,108.591 135.279,108.497 134.921 C 108.403 134.563,108.330 134.944,108.334 135.768 M60.606 141.854 C 65.203 141.913,72.619 141.913,77.085 141.853 C 81.552 141.794,77.790 141.745,68.727 141.745 C 59.663 141.745,56.009 141.794,60.606 141.854 M144.288 141.831 C 144.649 141.925,145.239 141.925,145.599 141.831 C 145.960 141.737,145.665 141.660,144.944 141.660 C 144.223 141.660,143.928 141.737,144.288 141.831 M339.447 141.854 C 346.208 141.911,357.163 141.911,363.791 141.854 C 370.420 141.796,364.888 141.750,351.498 141.750 C 338.109 141.750,332.685 141.797,339.447 141.854 M106.652 201.763 C 107.118 201.853,107.792 201.849,108.150 201.755 C 108.509 201.662,108.127 201.588,107.303 201.593 C 106.479 201.597,106.186 201.673,106.652 201.763 M304.213 201.756 C 304.574 201.851,305.164 201.851,305.524 201.756 C 305.885 201.662,305.590 201.585,304.869 201.585 C 304.148 201.585,303.853 201.662,304.213 201.756 M258.139 240.075 C 258.139 240.796,258.216 241.091,258.311 240.730 C 258.405 240.370,258.405 239.780,258.311 239.419 C 258.216 239.059,258.139 239.354,258.139 240.075 M251.404 328.723 C 251.765 328.817,252.355 328.817,252.715 328.723 C 253.076 328.628,252.781 328.551,252.060 328.551 C 251.339 328.551,251.044 328.628,251.404 328.723 M155.431 338.319 C 155.431 338.384,155.978 338.932,156.648 339.537 L 157.865 340.637 156.765 339.419 C 155.740 338.285,155.431 338.030,155.431 338.319 M201.783 343.711 C 202.249 343.800,202.923 343.797,203.282 343.703 C 203.640 343.609,203.258 343.536,202.434 343.540 C 201.610 343.544,201.318 343.621,201.783 343.711 M194.476 355.314 C 194.836 355.409,195.426 355.409,195.787 355.314 C 196.147 355.220,195.852 355.143,195.131 355.143 C 194.410 355.143,194.115 355.220,194.476 355.314 M216.390 355.321 C 216.856 355.411,217.530 355.407,217.888 355.314 C 218.246 355.220,217.865 355.146,217.041 355.151 C 216.217 355.155,215.924 355.231,216.390 355.321 " stroke="none" fill="#fcc1a8" fill-rule="evenodd"></path><path id="path2" d="M337.223 33.023 C 335.701 34.168,335.265 34.619,336.142 34.139 C 337.117 33.606,338.831 32.229,338.534 32.218 C 338.407 32.213,337.817 32.576,337.223 33.023 M64.139 36.891 C 64.144 37.715,64.220 38.008,64.310 37.542 C 64.399 37.077,64.396 36.402,64.302 36.044 C 64.209 35.686,64.135 36.067,64.139 36.891 M199.730 38.478 C 200.715 38.555,202.232 38.554,203.101 38.476 C 203.970 38.397,203.165 38.334,201.311 38.335 C 199.457 38.336,198.746 38.401,199.730 38.478 M209.094 38.478 C 210.078 38.555,211.595 38.554,212.464 38.476 C 213.334 38.397,212.528 38.334,210.674 38.335 C 208.820 38.336,208.109 38.401,209.094 38.478 M195.412 38.841 C 195.875 38.930,196.634 38.930,197.097 38.841 C 197.561 38.752,197.182 38.679,196.255 38.679 C 195.328 38.679,194.949 38.752,195.412 38.841 M215.262 38.841 C 215.726 38.930,216.484 38.930,216.948 38.841 C 217.411 38.752,217.032 38.679,216.105 38.679 C 215.178 38.679,214.799 38.752,215.262 38.841 M188.577 39.700 C 187.557 39.960,187.540 39.988,188.390 40.004 C 188.904 40.014,189.663 39.877,190.075 39.700 C 190.998 39.304,190.136 39.304,188.577 39.700 M222.285 39.700 C 222.697 39.877,223.371 40.017,223.783 40.011 C 224.385 40.002,224.348 39.941,223.596 39.700 C 222.315 39.290,221.330 39.290,222.285 39.700 M183.146 40.824 C 182.375 41.071,182.342 41.129,182.959 41.155 C 183.371 41.173,183.961 41.024,184.270 40.824 C 184.926 40.400,184.470 40.400,183.146 40.824 M227.903 40.824 C 228.315 41.001,228.989 41.141,229.401 41.135 C 230.003 41.126,229.966 41.065,229.213 40.824 C 227.933 40.414,226.948 40.414,227.903 40.824 M88.577 43.247 C 89.708 44.238,91.011 45.088,91.011 44.833 C 91.011 44.758,90.211 44.149,89.232 43.479 C 87.886 42.558,87.726 42.502,88.577 43.247 M236.330 43.008 C 236.639 43.199,237.313 43.468,237.828 43.606 C 238.478 43.780,238.593 43.750,238.202 43.509 C 237.893 43.318,237.219 43.049,236.704 42.911 C 236.053 42.737,235.939 42.767,236.330 43.008 M69.048 43.360 C 69.345 43.840,71.536 45.461,71.536 45.201 C 71.536 45.108,70.917 44.561,70.161 43.984 C 69.404 43.407,68.904 43.127,69.048 43.360 M339.182 46.065 C 337.402 47.412,337.026 47.797,338.015 47.260 C 338.873 46.794,341.106 44.972,340.824 44.968 C 340.721 44.966,339.982 45.460,339.182 46.065 M317.282 47.543 C 316.178 48.341,315.083 49.208,314.847 49.469 C 314.377 49.989,318.205 47.370,319.088 46.567 C 320.091 45.653,319.312 46.075,317.282 47.543 M335.581 48.735 C 334.275 49.879,334.275 49.881,335.476 49.082 C 336.139 48.641,336.781 48.119,336.902 47.923 C 337.263 47.338,336.964 47.522,335.581 48.735 M160.955 49.089 C 160.183 49.497,159.551 49.914,159.551 50.017 C 159.551 50.119,160.225 49.859,161.049 49.438 C 161.873 49.018,162.547 48.593,162.547 48.494 C 162.547 48.249,162.544 48.250,160.955 49.089 M77.528 49.574 C 77.528 49.677,78.034 50.122,78.652 50.562 C 79.270 51.002,79.775 51.278,79.775 51.175 C 79.775 51.072,79.270 50.627,78.652 50.187 C 78.034 49.747,77.528 49.471,77.528 49.574 M200.848 50.081 C 201.417 50.168,202.260 50.165,202.721 50.076 C 203.181 49.987,202.715 49.917,201.685 49.920 C 200.655 49.923,200.279 49.995,200.848 50.081 M209.837 50.081 C 210.406 50.168,211.249 50.165,211.709 50.076 C 212.170 49.987,211.704 49.917,210.674 49.920 C 209.644 49.923,209.267 49.995,209.837 50.081 M196.353 50.456 C 196.923 50.542,197.765 50.540,198.226 50.451 C 198.687 50.362,198.221 50.292,197.191 50.294 C 196.161 50.297,195.784 50.370,196.353 50.456 M214.139 50.452 C 214.602 50.541,215.360 50.541,215.824 50.452 C 216.287 50.362,215.908 50.289,214.981 50.289 C 214.054 50.289,213.675 50.362,214.139 50.452 M100.000 51.447 C 100.000 51.550,100.506 51.994,101.124 52.434 C 101.742 52.874,102.247 53.150,102.247 53.047 C 102.247 52.944,101.742 52.500,101.124 52.060 C 100.506 51.620,100.000 51.344,100.000 51.447 M187.640 51.691 C 187.245 51.950,187.467 51.988,188.390 51.818 C 190.005 51.522,190.309 51.309,189.107 51.317 C 188.610 51.320,187.949 51.488,187.640 51.691 M226.998 52.569 C 227.083 52.643,227.659 52.817,228.277 52.955 C 229.098 53.138,229.249 53.104,228.839 52.826 C 228.333 52.484,226.622 52.245,226.998 52.569 M259.925 54.418 C 259.925 54.493,260.726 55.102,261.704 55.772 C 263.051 56.693,263.210 56.749,262.360 56.004 C 261.229 55.013,259.925 54.163,259.925 54.418 M241.948 57.865 C 242.875 58.362,243.801 58.768,244.007 58.768 C 244.213 58.768,243.624 58.362,242.697 57.865 C 241.770 57.369,240.843 56.963,240.637 56.963 C 240.431 56.963,241.021 57.369,241.948 57.865 M88.390 57.440 C 88.390 57.543,88.895 57.987,89.513 58.427 C 90.131 58.867,90.637 59.143,90.637 59.040 C 90.637 58.937,90.131 58.492,89.513 58.052 C 88.895 57.612,88.390 57.337,88.390 57.440 M264.794 57.795 C 264.794 57.898,265.637 58.688,266.667 59.551 C 267.697 60.413,268.539 61.034,268.539 60.931 C 268.539 60.828,267.697 60.038,266.667 59.176 C 265.637 58.314,264.794 57.692,264.794 57.795 M318.051 61.456 C 317.187 62.091,316.479 62.692,316.479 62.790 C 316.479 62.888,317.238 62.423,318.165 61.758 C 319.680 60.669,320.079 60.300,319.737 60.300 C 319.674 60.300,318.916 60.820,318.051 61.456 M268.914 61.166 C 268.914 61.230,269.462 61.778,270.131 62.383 L 271.348 63.483 270.248 62.266 C 269.223 61.131,268.914 60.877,268.914 61.166 M139.640 64.240 C 138.473 65.369,137.636 66.292,137.780 66.292 C 137.923 66.292,138.956 65.365,140.075 64.232 C 142.705 61.569,142.394 61.575,139.640 64.240 M112.794 63.546 C 112.761 64.199,112.637 65.041,112.519 65.419 C 112.315 66.066,112.327 66.067,112.729 65.441 C 112.963 65.076,113.087 64.234,113.004 63.569 L 112.854 62.360 112.794 63.546 M274.906 66.854 C 276.855 68.811,278.534 70.412,278.637 70.412 C 278.740 70.412,277.230 68.811,275.281 66.854 C 273.332 64.897,271.653 63.296,271.550 63.296 C 271.447 63.296,272.958 64.897,274.906 66.854 M98.502 64.905 C 98.502 64.980,99.302 65.589,100.281 66.259 C 101.627 67.180,101.787 67.236,100.936 66.491 C 99.805 65.500,98.502 64.650,98.502 64.905 M254.682 64.911 C 254.682 65.004,255.300 65.552,256.057 66.128 C 256.813 66.705,257.313 66.986,257.169 66.752 C 256.873 66.273,254.682 64.651,254.682 64.911 M155.431 66.338 C 154.125 67.482,154.125 67.484,155.326 66.685 C 155.989 66.244,156.631 65.722,156.752 65.526 C 157.114 64.941,156.814 65.125,155.431 66.338 M134.819 69.195 L 132.772 71.348 134.925 69.301 C 136.926 67.399,137.250 67.041,136.972 67.041 C 136.914 67.041,135.945 68.010,134.819 69.195 M309.065 67.951 C 307.325 69.181,307.080 69.533,308.549 68.691 C 309.235 68.299,309.972 67.767,310.187 67.509 C 310.741 66.848,310.481 66.950,309.065 67.951 M259.363 68.421 C 260.822 69.891,263.346 71.924,262.360 70.835 C 261.742 70.153,260.730 69.246,260.112 68.819 C 259.494 68.393,259.157 68.213,259.363 68.421 M150.916 69.944 L 149.625 71.348 151.030 70.058 C 151.802 69.348,152.434 68.716,152.434 68.653 C 152.434 68.367,152.118 68.637,150.916 69.944 M204.213 68.808 C 204.780 68.893,205.707 68.893,206.273 68.808 C 206.840 68.722,206.376 68.652,205.243 68.652 C 204.110 68.652,203.647 68.722,204.213 68.808 M199.345 69.172 C 199.705 69.266,200.295 69.266,200.655 69.172 C 201.016 69.078,200.721 69.001,200.000 69.001 C 199.279 69.001,198.984 69.078,199.345 69.172 M209.922 70.413 C 211.698 72.488,211.722 72.511,211.316 71.723 C 211.104 71.311,210.451 70.553,209.866 70.039 L 208.801 69.104 209.922 70.413 M147.171 73.315 L 145.880 74.719 147.285 73.428 C 148.057 72.719,148.689 72.086,148.689 72.024 C 148.689 71.738,148.372 72.007,147.171 73.315 M280.150 72.776 C 280.150 72.841,280.698 73.389,281.367 73.994 L 282.584 75.094 281.484 73.876 C 280.459 72.742,280.150 72.487,280.150 72.776 M211.712 74.532 C 211.712 75.459,211.786 75.838,211.875 75.375 C 211.964 74.911,211.964 74.153,211.875 73.689 C 211.786 73.226,211.712 73.605,211.712 74.532 M266.854 75.281 C 268.077 76.517,269.162 77.528,269.265 77.528 C 269.368 77.528,268.452 76.517,267.228 75.281 C 266.005 74.045,264.920 73.034,264.817 73.034 C 264.714 73.034,265.631 74.045,266.854 75.281 M143.235 77.247 L 142.135 78.464 143.352 77.364 C 144.487 76.339,144.741 76.030,144.452 76.030 C 144.388 76.030,143.840 76.578,143.235 77.247 M285.768 79.775 C 286.208 80.393,286.652 80.899,286.755 80.899 C 286.858 80.899,286.582 80.393,286.142 79.775 C 285.702 79.157,285.258 78.652,285.155 78.652 C 285.052 78.652,285.328 79.157,285.768 79.775 M271.692 80.524 C 273.656 82.811,274.050 83.170,273.131 81.835 C 272.706 81.217,271.883 80.290,271.302 79.775 C 270.600 79.153,270.732 79.405,271.692 80.524 M201.124 80.526 C 200.403 80.678,201.414 80.717,203.371 80.611 C 205.328 80.506,206.999 80.359,207.085 80.285 C 207.364 80.043,202.471 80.241,201.124 80.526 M189.513 82.789 C 189.103 83.066,189.254 83.101,190.075 82.917 C 191.452 82.609,191.751 82.395,190.793 82.403 C 190.398 82.406,189.822 82.580,189.513 82.789 M160.654 86.423 L 159.363 87.828 160.768 86.537 C 161.540 85.827,162.172 85.195,162.172 85.133 C 162.172 84.847,161.855 85.116,160.654 86.423 M119.850 89.888 C 119.430 90.712,119.170 91.386,119.273 91.386 C 119.376 91.386,119.804 90.712,120.225 89.888 C 120.645 89.064,120.905 88.390,120.802 88.390 C 120.699 88.390,120.271 89.064,119.850 89.888 M166.472 97.097 L 163.109 100.562 166.573 97.199 C 169.791 94.075,170.208 93.633,169.936 93.633 C 169.880 93.633,168.321 95.192,166.472 97.097 M285.831 104.139 C 286.050 104.767,286.298 105.212,286.383 105.127 C 286.569 104.942,285.862 102.996,285.609 102.996 C 285.512 102.996,285.611 103.510,285.831 104.139 M113.546 104.475 C 113.327 105.104,113.227 105.618,113.325 105.618 C 113.577 105.618,114.284 103.672,114.099 103.487 C 114.014 103.402,113.765 103.847,113.546 104.475 M286.954 107.135 C 287.173 107.764,287.422 108.208,287.507 108.123 C 287.692 107.938,286.986 105.993,286.733 105.993 C 286.635 105.993,286.735 106.507,286.954 107.135 M288.068 110.112 C 288.068 110.421,288.212 111.011,288.390 111.423 C 288.592 111.895,288.711 111.965,288.711 111.610 C 288.711 111.301,288.567 110.712,288.390 110.300 C 288.187 109.827,288.068 109.758,288.068 110.112 M110.163 117.228 C 110.130 117.743,110.015 118.586,109.909 119.101 L 109.717 120.037 110.119 119.116 C 110.340 118.608,110.455 117.766,110.373 117.243 L 110.225 116.292 110.163 117.228 M121.956 117.430 C 121.828 117.765,121.740 118.404,121.761 118.851 C 121.785 119.364,121.913 119.182,122.107 118.355 C 122.434 116.963,122.345 116.417,121.956 117.430 M153.164 118.591 C 152.957 119.135,152.858 119.649,152.942 119.734 C 153.027 119.819,153.276 119.374,153.495 118.746 C 153.982 117.349,153.688 117.212,153.164 118.591 M290.344 119.476 C 290.340 119.991,290.472 120.833,290.637 121.348 C 291.040 122.607,291.040 121.247,290.637 119.663 C 290.380 118.654,290.350 118.635,290.344 119.476 M302.334 120.599 C 302.334 121.320,302.411 121.615,302.505 121.255 C 302.600 120.894,302.600 120.304,302.505 119.944 C 302.411 119.583,302.334 119.878,302.334 120.599 M151.899 123.060 C 151.762 123.609,151.721 124.131,151.809 124.219 C 151.898 124.307,152.083 123.930,152.220 123.381 C 152.358 122.833,152.399 122.311,152.310 122.223 C 152.222 122.135,152.037 122.512,151.899 123.060 M120.851 124.304 C 120.712 124.996,120.618 125.920,120.640 126.358 C 120.663 126.795,120.831 126.395,121.013 125.468 C 121.195 124.541,121.290 123.617,121.224 123.414 C 121.157 123.211,120.989 123.612,120.851 124.304 M109.076 124.719 C 109.076 125.440,109.153 125.735,109.247 125.375 C 109.341 125.014,109.341 124.424,109.247 124.064 C 109.153 123.703,109.076 123.998,109.076 124.719 M303.098 126.592 C 303.098 127.519,303.171 127.898,303.261 127.434 C 303.350 126.971,303.350 126.213,303.261 125.749 C 303.171 125.286,303.098 125.665,303.098 126.592 M291.502 128.277 C 291.504 129.513,291.574 129.974,291.657 129.300 C 291.741 128.627,291.739 127.616,291.653 127.053 C 291.568 126.490,291.500 127.041,291.502 128.277 M108.721 128.277 C 108.724 129.307,108.797 129.684,108.883 129.115 C 108.969 128.545,108.967 127.703,108.878 127.242 C 108.789 126.781,108.719 127.247,108.721 128.277 M120.327 130.712 C 120.327 131.639,120.400 132.018,120.489 131.554 C 120.578 131.091,120.578 130.332,120.489 129.869 C 120.400 129.405,120.327 129.785,120.327 130.712 M139.091 133.146 C 139.092 135.412,139.154 136.291,139.228 135.099 C 139.303 133.907,139.302 132.053,139.227 130.979 C 139.152 129.905,139.091 130.880,139.091 133.146 M303.524 135.393 C 303.524 138.895,303.580 140.378,303.649 138.689 C 303.718 136.999,303.719 134.134,303.650 132.322 C 303.581 130.509,303.524 131.891,303.524 135.393 M150.697 133.333 C 150.697 135.290,150.760 136.091,150.837 135.112 C 150.914 134.134,150.914 132.533,150.837 131.554 C 150.760 130.576,150.697 131.376,150.697 133.333 M376.779 130.441 C 376.779 130.512,377.327 130.972,377.996 131.462 C 378.749 132.013,379.011 132.104,378.682 131.699 C 378.184 131.085,376.779 130.156,376.779 130.441 M33.372 132.036 C 32.733 132.764,32.215 133.564,32.221 133.815 C 32.227 134.065,32.418 133.933,32.646 133.521 C 32.873 133.109,33.489 132.308,34.015 131.742 C 34.541 131.175,34.873 130.712,34.753 130.712 C 34.633 130.712,34.011 131.307,33.372 132.036 M87.673 131.692 C 88.170 132.335,88.652 132.793,88.744 132.711 C 88.836 132.629,88.429 132.103,87.840 131.543 L 86.769 130.524 87.673 131.692 M291.907 135.955 C 291.907 138.736,291.966 139.874,292.038 138.483 C 292.110 137.093,292.110 134.817,292.038 133.427 C 291.966 132.037,291.907 133.174,291.907 135.955 M379.699 135.150 C 379.789 136.402,379.670 137.734,379.421 138.243 C 379.007 139.093,379.015 139.101,379.567 138.412 C 380.186 137.639,380.370 134.261,379.839 133.424 C 379.674 133.164,379.611 133.941,379.699 135.150 M120.312 140.449 C 120.312 141.170,120.389 141.465,120.483 141.105 C 120.577 140.744,120.577 140.154,120.483 139.794 C 120.389 139.434,120.312 139.728,120.312 140.449 M108.701 142.322 C 108.701 143.043,108.778 143.338,108.872 142.978 C 108.967 142.617,108.967 142.027,108.872 141.667 C 108.778 141.306,108.701 141.601,108.701 142.322 M291.488 142.697 C 291.488 143.624,291.561 144.003,291.650 143.539 C 291.739 143.076,291.739 142.317,291.650 141.854 C 291.561 141.390,291.488 141.770,291.488 142.697 M303.091 144.007 C 303.095 144.831,303.172 145.124,303.261 144.659 C 303.351 144.193,303.347 143.519,303.254 143.160 C 303.160 142.802,303.087 143.184,303.091 144.007 M120.686 144.195 C 120.686 144.916,120.763 145.211,120.857 144.850 C 120.952 144.490,120.952 143.900,120.857 143.539 C 120.763 143.179,120.686 143.474,120.686 144.195 M109.091 145.318 C 109.091 146.245,109.164 146.625,109.253 146.161 C 109.342 145.698,109.342 144.939,109.253 144.476 C 109.164 144.012,109.091 144.391,109.091 145.318 M302.487 147.644 C 302.361 148.116,302.274 148.923,302.293 149.438 C 302.315 149.990,302.463 149.692,302.655 148.713 C 302.999 146.959,302.878 146.186,302.487 147.644 M290.496 148.736 C 290.184 150.297,290.487 150.600,290.824 149.064 C 290.966 148.416,291.004 147.808,290.909 147.713 C 290.814 147.618,290.628 148.078,290.496 148.736 M109.801 150.187 C 109.821 151.160,110.410 152.759,110.423 151.873 C 110.429 151.461,110.289 150.787,110.112 150.375 C 109.915 149.916,109.795 149.843,109.801 150.187 M121.749 150.593 C 121.764 151.091,121.928 151.835,122.115 152.247 C 122.351 152.769,122.385 152.542,122.226 151.498 C 121.961 149.759,121.711 149.284,121.749 150.593 M301.167 153.996 C 301.143 154.339,301.027 154.929,300.908 155.306 C 300.704 155.957,300.715 155.958,301.121 155.325 C 301.356 154.958,301.472 154.368,301.380 154.014 C 301.227 153.435,301.206 153.433,301.167 153.996 M288.057 157.720 C 287.826 158.381,287.703 158.989,287.783 159.069 C 287.863 159.149,288.117 158.673,288.348 158.011 C 288.579 157.349,288.702 156.742,288.622 156.662 C 288.542 156.582,288.287 157.058,288.057 157.720 M112.200 159.551 C 112.337 160.066,112.606 160.740,112.797 161.049 C 113.039 161.439,113.068 161.325,112.894 160.674 C 112.756 160.159,112.487 159.485,112.296 159.176 C 112.055 158.786,112.026 158.900,112.200 159.551 M286.952 160.877 C 286.325 162.255,286.444 162.549,287.123 161.296 C 287.440 160.712,287.629 160.163,287.543 160.078 C 287.458 159.992,287.192 160.352,286.952 160.877 M278.277 200.187 C 277.639 201.114,277.202 201.873,277.305 201.873 C 277.408 201.873,278.014 201.114,278.652 200.187 C 279.289 199.260,279.727 198.502,279.624 198.502 C 279.521 198.502,278.915 199.260,278.277 200.187 M100.562 205.089 L 99.438 206.054 100.655 205.249 C 101.325 204.806,101.873 204.371,101.873 204.282 C 101.873 204.001,101.714 204.099,100.562 205.089 M112.829 207.678 C 112.833 208.502,112.909 208.795,112.999 208.329 C 113.089 207.863,113.085 207.189,112.991 206.831 C 112.898 206.473,112.824 206.854,112.829 207.678 M316.239 208.529 C 316.536 209.008,318.727 210.630,318.727 210.370 C 318.727 210.277,318.108 209.729,317.352 209.153 C 316.595 208.576,316.095 208.295,316.239 208.529 M90.824 212.205 L 89.700 213.171 90.918 212.365 C 91.587 211.922,92.135 211.487,92.135 211.398 C 92.135 211.117,91.976 211.215,90.824 212.205 M109.363 213.154 C 108.058 214.299,108.058 214.300,109.258 213.501 C 109.922 213.060,110.564 212.539,110.685 212.342 C 111.046 211.758,110.747 211.942,109.363 213.154 M324.719 214.743 C 324.719 214.846,325.225 215.290,325.843 215.730 C 326.461 216.170,326.966 216.446,326.966 216.343 C 326.966 216.240,326.461 215.796,325.843 215.356 C 325.225 214.916,324.719 214.640,324.719 214.743 M79.632 220.223 C 77.852 221.570,77.476 221.954,78.464 221.418 C 79.323 220.951,81.555 219.130,81.273 219.125 C 81.170 219.123,80.432 219.617,79.632 220.223 M314.607 221.859 C 314.607 221.962,315.112 222.406,315.730 222.846 C 316.348 223.286,316.854 223.562,316.854 223.459 C 316.854 223.356,316.348 222.912,315.730 222.472 C 315.112 222.032,314.607 221.756,314.607 221.859 M322.846 227.852 C 322.846 227.955,323.352 228.399,323.970 228.839 C 324.588 229.279,325.094 229.555,325.094 229.452 C 325.094 229.349,324.588 228.904,323.970 228.464 C 323.352 228.024,322.846 227.749,322.846 227.852 M247.780 231.300 C 247.642 231.849,247.601 232.370,247.690 232.459 C 247.778 232.547,247.963 232.170,248.101 231.621 C 248.238 231.072,248.279 230.551,248.191 230.463 C 248.102 230.374,247.917 230.751,247.780 231.300 M259.592 232.251 C 259.361 232.913,259.238 233.520,259.318 233.600 C 259.398 233.681,259.653 233.205,259.883 232.543 C 260.114 231.881,260.237 231.274,260.157 231.194 C 260.077 231.113,259.823 231.589,259.592 232.251 M164.472 232.584 C 164.472 232.893,164.617 233.483,164.794 233.895 C 164.997 234.367,165.116 234.437,165.116 234.082 C 165.116 233.773,164.971 233.184,164.794 232.772 C 164.591 232.299,164.472 232.230,164.472 232.584 M64.139 234.644 C 64.144 235.468,64.220 235.761,64.310 235.295 C 64.399 234.829,64.396 234.155,64.302 233.797 C 64.209 233.439,64.135 233.820,64.139 234.644 M80.337 234.302 L 79.213 235.268 80.431 234.462 C 81.100 234.019,81.648 233.584,81.648 233.495 C 81.648 233.215,81.489 233.312,80.337 234.302 M246.544 238.202 C 246.544 239.129,246.617 239.508,246.706 239.045 C 246.796 238.581,246.796 237.823,246.706 237.360 C 246.617 236.896,246.544 237.275,246.544 238.202 M64.794 237.321 C 64.794 237.522,65.342 238.183,66.011 238.788 L 67.228 239.888 66.105 238.579 C 65.487 237.859,64.939 237.199,64.888 237.112 C 64.836 237.025,64.794 237.119,64.794 237.321 M153.835 238.807 C 153.944 239.813,154.094 240.707,154.170 240.793 C 154.468 241.132,154.275 237.982,153.967 237.496 C 153.766 237.179,153.715 237.689,153.835 238.807 M165.645 238.577 C 165.645 239.504,165.718 239.883,165.807 239.419 C 165.897 238.956,165.897 238.198,165.807 237.734 C 165.718 237.271,165.645 237.650,165.645 238.577 M165.983 242.198 C 165.947 243.056,165.821 244.068,165.702 244.445 C 165.500 245.090,165.512 245.091,165.911 244.471 C 166.144 244.108,166.270 243.096,166.192 242.224 L 166.048 240.637 165.983 242.198 M154.394 242.697 C 154.394 243.418,154.471 243.713,154.565 243.352 C 154.659 242.992,154.659 242.402,154.565 242.041 C 154.471 241.681,154.394 241.976,154.394 242.697 M163.670 247.247 C 162.949 247.880,162.699 248.225,163.113 248.016 C 163.797 247.670,165.493 246.046,165.133 246.083 C 165.050 246.091,164.391 246.615,163.670 247.247 M256.348 246.472 C 256.211 246.695,255.569 247.200,254.922 247.594 C 254.275 247.989,253.953 248.312,254.208 248.313 C 254.687 248.315,257.315 246.098,256.857 246.078 C 256.715 246.072,256.486 246.250,256.348 246.472 M156.657 247.566 C 157.180 247.978,157.731 248.315,157.881 248.315 C 158.031 248.315,157.725 247.978,157.201 247.566 C 156.677 247.154,156.126 246.816,155.977 246.816 C 155.827 246.816,156.133 247.154,156.657 247.566 M182.707 267.697 C 195.752 267.751,216.988 267.751,229.898 267.697 C 242.808 267.642,232.135 267.597,206.180 267.597 C 180.225 267.597,169.662 267.642,182.707 267.697 M155.844 269.489 C 155.205 270.217,154.684 270.933,154.686 271.080 C 154.688 271.228,155.120 270.803,155.645 270.137 C 156.170 269.471,156.884 268.760,157.232 268.557 C 157.580 268.354,157.672 268.182,157.436 268.176 C 157.200 268.170,156.483 268.761,155.844 269.489 M154.402 273.221 C 154.406 274.045,154.482 274.338,154.572 273.872 C 154.662 273.406,154.658 272.732,154.564 272.374 C 154.471 272.016,154.397 272.397,154.402 273.221 M257.022 275.749 C 256.620 276.850,256.630 276.897,257.127 276.239 C 257.604 275.610,257.885 274.532,257.573 274.532 C 257.515 274.532,257.267 275.080,257.022 275.749 M154.693 275.556 C 154.687 275.810,155.145 276.492,155.712 277.072 C 156.278 277.652,156.470 277.781,156.137 277.359 C 155.805 276.937,155.347 276.255,155.119 275.843 C 154.891 275.431,154.699 275.302,154.693 275.556 M252.622 279.227 C 251.685 279.678,251.654 279.730,252.434 279.539 C 253.496 279.280,254.689 278.672,254.120 278.680 C 253.914 278.683,253.240 278.929,252.622 279.227 M168.539 279.300 C 194.360 279.559,214.519 279.562,214.362 279.307 C 214.266 279.153,201.684 279.065,186.401 279.113 C 171.118 279.161,163.081 279.245,168.539 279.300 M209.176 281.447 C 207.730 282.109,208.402 282.119,210.112 281.461 C 210.833 281.183,211.170 280.951,210.861 280.944 C 210.552 280.938,209.794 281.164,209.176 281.447 M244.757 281.848 C 243.820 282.299,243.789 282.351,244.569 282.161 C 245.631 281.901,246.823 281.293,246.255 281.302 C 246.049 281.305,245.375 281.551,244.757 281.848 M199.064 284.845 C 198.127 285.296,198.096 285.348,198.876 285.157 C 199.938 284.898,201.131 284.290,200.562 284.298 C 200.356 284.301,199.682 284.547,199.064 284.845 M195.693 285.968 C 194.756 286.419,194.725 286.471,195.506 286.281 C 196.567 286.021,197.760 285.413,197.191 285.422 C 196.985 285.425,196.311 285.671,195.693 285.968 M221.161 289.714 C 220.224 290.165,220.193 290.217,220.974 290.026 C 222.035 289.767,223.228 289.159,222.659 289.167 C 222.453 289.170,221.779 289.416,221.161 289.714 M217.790 290.837 C 216.854 291.288,216.823 291.340,217.603 291.149 C 218.664 290.890,219.857 290.282,219.288 290.290 C 219.082 290.293,218.408 290.539,217.790 290.837 M211.049 293.084 C 210.112 293.535,210.081 293.587,210.861 293.397 C 211.923 293.137,213.116 292.529,212.547 292.538 C 212.341 292.541,211.667 292.787,211.049 293.084 M200.936 296.455 C 200.000 296.906,199.969 296.958,200.749 296.767 C 201.810 296.508,203.003 295.900,202.434 295.908 C 202.228 295.911,201.554 296.157,200.936 296.455 M186.330 301.324 C 185.393 301.775,185.362 301.827,186.142 301.636 C 187.204 301.377,188.396 300.769,187.828 300.777 C 187.622 300.780,186.948 301.026,186.330 301.324 M154.402 303.933 C 154.406 304.757,154.482 305.050,154.572 304.584 C 154.662 304.118,154.658 303.444,154.564 303.086 C 154.471 302.727,154.397 303.109,154.402 303.933 M176.217 304.695 C 175.281 305.146,175.249 305.198,176.030 305.007 C 177.091 304.748,178.284 304.140,177.715 304.148 C 177.509 304.151,176.835 304.397,176.217 304.695 M256.132 307.739 C 255.849 308.081,255.112 308.670,254.494 309.048 C 253.876 309.426,253.584 309.736,253.844 309.736 C 254.315 309.738,257.331 307.146,256.881 307.126 C 256.752 307.121,256.415 307.396,256.132 307.739 M197.566 315.931 C 196.629 316.382,196.598 316.434,197.378 316.243 C 198.440 315.984,199.632 315.376,199.064 315.384 C 198.858 315.387,198.184 315.633,197.566 315.931 M233.146 316.305 C 232.210 316.756,232.178 316.808,232.959 316.618 C 234.020 316.358,235.213 315.750,234.644 315.759 C 234.438 315.762,233.764 316.008,233.146 316.305 M229.775 317.402 C 228.329 318.065,229.002 318.074,230.712 317.416 C 231.433 317.138,231.770 316.906,231.461 316.899 C 231.152 316.893,230.393 317.119,229.775 317.402 M219.663 320.800 C 218.726 321.251,218.695 321.303,219.476 321.112 C 220.537 320.853,221.730 320.245,221.161 320.253 C 220.955 320.256,220.281 320.502,219.663 320.800 M179.588 321.923 C 178.651 322.374,178.620 322.426,179.401 322.236 C 180.462 321.976,181.655 321.368,181.086 321.377 C 180.880 321.380,180.206 321.626,179.588 321.923 M251.035 329.108 C 251.604 329.194,252.447 329.191,252.908 329.103 C 253.368 329.014,252.903 328.943,251.873 328.946 C 250.843 328.949,250.466 329.022,251.035 329.108 M154.402 334.644 C 154.406 335.468,154.482 335.761,154.572 335.295 C 154.662 334.829,154.658 334.155,154.564 333.797 C 154.471 333.439,154.397 333.820,154.402 334.644 M173.960 335.971 C 173.683 336.419,174.425 337.453,175.024 337.453 C 175.244 337.453,175.111 337.224,174.729 336.945 C 174.053 336.450,174.053 336.425,174.751 336.020 C 175.370 335.660,175.382 335.602,174.835 335.592 C 174.487 335.586,174.093 335.756,173.960 335.971 M185.206 341.399 C 185.824 341.682,186.582 341.909,186.891 341.902 C 187.200 341.896,186.863 341.663,186.142 341.386 C 184.432 340.727,183.760 340.737,185.206 341.399 M190.449 342.697 C 192.034 343.100,193.394 343.100,192.135 342.697 C 191.620 342.532,190.777 342.400,190.262 342.404 C 189.421 342.410,189.440 342.440,190.449 342.697 M198.040 343.717 C 198.714 343.800,199.725 343.799,200.288 343.713 C 200.850 343.628,200.300 343.560,199.064 343.562 C 197.828 343.564,197.367 343.634,198.040 343.717 M213.202 343.714 C 213.769 343.800,214.696 343.800,215.262 343.714 C 215.829 343.628,215.365 343.558,214.232 343.558 C 213.099 343.558,212.636 343.628,213.202 343.714 M204.197 344.098 C 205.579 344.169,207.938 344.170,209.441 344.099 C 210.943 344.027,209.813 343.969,206.929 343.968 C 204.045 343.967,202.816 344.026,204.197 344.098 M240.449 348.502 C 239.934 348.796,239.682 349.037,239.888 349.037 C 240.094 349.037,240.684 348.796,241.199 348.502 C 241.713 348.207,241.966 347.967,241.760 347.967 C 241.554 347.967,240.964 348.207,240.449 348.502 M230.899 352.060 C 230.427 352.263,230.357 352.382,230.712 352.382 C 231.021 352.382,231.610 352.237,232.022 352.060 C 232.495 351.857,232.564 351.738,232.210 351.738 C 231.901 351.738,231.311 351.883,230.899 352.060 M184.457 353.184 C 184.869 353.361,185.459 353.505,185.768 353.505 C 186.122 353.505,186.053 353.386,185.581 353.184 C 185.169 353.006,184.579 352.862,184.270 352.862 C 183.916 352.862,183.985 352.981,184.457 353.184 M226.592 353.184 C 225.820 353.431,225.787 353.489,226.404 353.515 C 226.816 353.532,227.406 353.383,227.715 353.184 C 228.372 352.759,227.916 352.759,226.592 353.184 M189.326 354.297 C 190.041 354.614,192.429 354.828,192.104 354.547 C 192.018 354.472,191.189 354.311,190.262 354.189 C 189.137 354.040,188.826 354.076,189.326 354.297 M220.974 354.307 C 219.694 354.577,219.689 354.584,220.787 354.606 C 221.404 354.619,222.247 354.484,222.659 354.307 C 223.560 353.920,222.812 353.920,220.974 354.307 M197.103 355.325 C 197.672 355.411,198.515 355.409,198.975 355.320 C 199.436 355.231,198.970 355.160,197.940 355.163 C 196.910 355.166,196.533 355.239,197.103 355.325 M213.207 355.325 C 213.777 355.411,214.619 355.409,215.080 355.320 C 215.541 355.231,215.075 355.160,214.045 355.163 C 213.015 355.166,212.638 355.239,213.207 355.325 M202.903 355.709 C 204.602 355.779,207.383 355.779,209.082 355.709 C 210.782 355.640,209.391 355.583,205.993 355.583 C 202.594 355.583,201.203 355.640,202.903 355.709 " stroke="none" fill="#fcac8b" fill-rule="evenodd"></path><path id="path3" d="M68.539 30.924 C 69.797 31.205,72.576 31.254,72.414 30.993 C 72.319 30.838,71.281 30.731,70.109 30.755 C 68.937 30.779,68.230 30.855,68.539 30.924 M339.946 30.993 C 339.850 31.147,340.835 31.273,342.135 31.273 C 343.434 31.273,344.420 31.147,344.324 30.993 C 344.229 30.838,343.243 30.712,342.135 30.712 C 341.026 30.712,340.041 30.838,339.946 30.993 M345.318 31.578 C 345.318 31.642,345.866 32.190,346.536 32.795 L 347.753 33.895 346.653 32.678 C 345.627 31.543,345.318 31.289,345.318 31.578 M204.413 38.104 C 205.502 38.180,207.187 38.179,208.159 38.102 C 209.130 38.026,208.240 37.964,206.180 37.965 C 204.120 37.965,203.325 38.028,204.413 38.104 M190.824 38.969 C 190.302 39.205,190.529 39.239,191.573 39.080 C 192.397 38.955,193.141 38.790,193.227 38.714 C 193.549 38.431,191.543 38.643,190.824 38.969 M346.231 41.292 L 345.131 42.509 346.348 41.409 C 347.018 40.804,347.566 40.257,347.566 40.192 C 347.566 39.903,347.257 40.158,346.231 41.292 M324.813 41.610 C 323.937 42.230,323.221 42.821,323.221 42.922 C 323.221 43.024,323.979 42.585,324.906 41.948 C 325.833 41.310,326.592 40.712,326.592 40.619 C 326.592 40.361,326.521 40.400,324.813 41.610 M238.202 43.197 C 238.202 43.293,238.746 43.562,239.411 43.794 C 240.076 44.026,240.455 44.061,240.254 43.872 C 239.827 43.473,238.202 42.938,238.202 43.197 M244.569 45.880 C 245.084 46.175,245.674 46.415,245.880 46.415 C 246.086 46.415,245.833 46.175,245.318 45.880 C 244.803 45.586,244.213 45.345,244.007 45.345 C 243.801 45.345,244.054 45.586,244.569 45.880 M201.779 50.452 C 202.243 50.541,203.001 50.541,203.464 50.452 C 203.928 50.362,203.549 50.289,202.622 50.289 C 201.695 50.289,201.316 50.362,201.779 50.452 M208.521 50.452 C 208.984 50.541,209.743 50.541,210.206 50.452 C 210.669 50.362,210.290 50.289,209.363 50.289 C 208.436 50.289,208.057 50.362,208.521 50.452 M193.727 51.195 C 194.087 51.289,194.677 51.289,195.037 51.195 C 195.398 51.100,195.103 51.023,194.382 51.023 C 193.661 51.023,193.366 51.100,193.727 51.195 M217.322 51.195 C 217.683 51.289,218.272 51.289,218.633 51.195 C 218.993 51.100,218.699 51.023,217.978 51.023 C 217.257 51.023,216.962 51.100,217.322 51.195 M224.719 52.434 C 226.000 52.845,226.984 52.845,226.030 52.434 C 225.618 52.257,224.944 52.118,224.532 52.124 C 223.930 52.132,223.966 52.193,224.719 52.434 M181.835 53.558 C 181.363 53.761,181.294 53.880,181.648 53.880 C 181.957 53.880,182.547 53.735,182.959 53.558 C 183.431 53.355,183.500 53.236,183.146 53.236 C 182.837 53.236,182.247 53.381,181.835 53.558 M229.401 53.558 C 229.813 53.735,230.403 53.880,230.712 53.880 C 231.066 53.880,230.996 53.761,230.524 53.558 C 230.112 53.381,229.522 53.236,229.213 53.236 C 228.859 53.236,228.929 53.355,229.401 53.558 M328.277 54.527 L 327.154 55.493 328.371 54.687 C 329.040 54.244,329.588 53.809,329.588 53.720 C 329.588 53.439,329.429 53.537,328.277 54.527 M304.682 56.400 L 303.558 57.365 304.775 56.560 C 305.445 56.117,305.993 55.681,305.993 55.592 C 305.993 55.312,305.834 55.410,304.682 56.400 M300.729 59.457 L 299.438 60.861 300.843 59.571 C 302.150 58.369,302.419 58.052,302.133 58.052 C 302.071 58.052,301.439 58.684,300.729 59.457 M143.609 60.393 L 142.509 61.610 143.727 60.510 C 144.861 59.485,145.116 59.176,144.827 59.176 C 144.762 59.176,144.214 59.724,143.609 60.393 M299.028 61.942 C 298.919 62.228,298.886 63.197,298.954 64.096 C 299.076 65.678,299.086 65.661,299.259 63.576 C 299.441 61.390,299.387 61.008,299.028 61.942 M272.644 64.139 C 273.562 65.117,274.362 65.918,274.423 65.918 C 274.704 65.918,274.406 65.581,272.753 64.029 L 270.974 62.360 272.644 64.139 M256.554 66.784 C 256.554 66.877,257.173 67.424,257.929 68.001 C 258.685 68.578,259.186 68.858,259.042 68.625 C 258.745 68.145,256.554 66.524,256.554 66.784 M277.512 69.007 C 278.431 69.986,279.231 70.787,279.291 70.787 C 279.573 70.787,279.275 70.450,277.622 68.898 L 275.843 67.228 277.512 69.007 M198.787 68.804 C 199.253 68.894,199.927 68.890,200.285 68.797 C 200.643 68.703,200.262 68.630,199.438 68.634 C 198.614 68.638,198.321 68.715,198.787 68.804 M150.357 70.880 L 148.876 72.472 150.468 70.991 C 151.948 69.615,152.232 69.288,151.949 69.288 C 151.887 69.288,151.171 70.005,150.357 70.880 M146.980 73.876 L 145.880 75.094 147.097 73.994 C 148.232 72.968,148.487 72.659,148.197 72.659 C 148.133 72.659,147.585 73.207,146.980 73.876 M266.479 75.281 C 267.284 76.105,268.027 76.779,268.130 76.779 C 268.233 76.779,267.659 76.105,266.854 75.281 C 266.049 74.457,265.307 73.783,265.204 73.783 C 265.101 73.783,265.675 74.457,266.479 75.281 M143.990 76.873 L 142.509 78.464 144.101 76.984 C 145.581 75.607,145.865 75.281,145.582 75.281 C 145.520 75.281,144.804 75.997,143.990 76.873 M269.663 78.769 C 269.663 78.833,270.211 79.381,270.880 79.986 L 272.097 81.086 270.997 79.869 C 269.972 78.734,269.663 78.480,269.663 78.769 M140.613 80.618 L 139.513 81.835 140.730 80.735 C 141.865 79.710,142.120 79.401,141.830 79.401 C 141.766 79.401,141.218 79.949,140.613 80.618 M204.963 80.783 C 205.323 80.877,205.913 80.877,206.273 80.783 C 206.634 80.688,206.339 80.611,205.618 80.611 C 204.897 80.611,204.602 80.688,204.963 80.783 M199.345 81.157 C 199.705 81.251,200.295 81.251,200.655 81.157 C 201.016 81.063,200.721 80.986,200.000 80.986 C 199.279 80.986,198.984 81.063,199.345 81.157 M153.590 93.401 L 152.686 94.569 153.758 93.551 C 154.347 92.990,154.754 92.465,154.662 92.383 C 154.570 92.301,154.088 92.759,153.590 93.401 M167.028 96.910 L 164.981 99.064 167.135 97.017 C 168.319 95.891,169.288 94.922,169.288 94.863 C 169.288 94.585,168.930 94.909,167.028 96.910 M287.096 108.708 C 287.236 109.171,287.504 109.715,287.693 109.917 C 287.881 110.118,287.846 109.739,287.614 109.074 C 287.140 107.713,286.702 107.404,287.096 108.708 M111.470 109.785 C 111.158 111.346,111.460 111.648,111.798 110.112 C 111.940 109.465,111.978 108.857,111.883 108.762 C 111.787 108.666,111.602 109.127,111.470 109.785 M124.013 110.924 C 123.990 111.268,123.873 111.858,123.754 112.235 C 123.550 112.886,123.561 112.887,123.967 112.254 C 124.202 111.887,124.319 111.297,124.226 110.943 C 124.074 110.363,124.053 110.362,124.013 110.924 M289.519 117.447 C 289.522 117.842,289.696 118.418,289.905 118.727 C 290.182 119.137,290.217 118.985,290.034 118.165 C 289.726 116.788,289.511 116.489,289.519 117.447 M140.683 118.554 C 140.555 118.889,140.464 119.444,140.482 119.787 C 140.499 120.131,140.662 119.915,140.844 119.307 C 141.197 118.125,141.072 117.540,140.683 118.554 M303.083 122.846 C 303.083 123.567,303.160 123.862,303.254 123.502 C 303.349 123.141,303.349 122.551,303.254 122.191 C 303.160 121.831,303.083 122.125,303.083 122.846 M290.663 124.563 C 290.678 125.164,290.839 125.993,291.021 126.404 C 291.242 126.905,291.279 126.594,291.130 125.468 C 290.867 123.483,290.626 123.015,290.663 124.563 M151.731 125.655 C 151.700 126.067,151.588 126.826,151.482 127.341 L 151.290 128.277 151.691 127.358 C 151.912 126.853,152.024 126.095,151.940 125.673 C 151.791 124.926,151.786 124.926,151.731 125.655 M108.375 131.086 C 108.375 133.043,108.438 133.844,108.515 132.865 C 108.592 131.887,108.592 130.286,108.515 129.307 C 108.438 128.329,108.375 129.129,108.375 131.086 M120.706 131.648 C 120.709 132.678,120.782 133.055,120.868 132.485 C 120.954 131.916,120.952 131.073,120.863 130.613 C 120.774 130.152,120.704 130.618,120.706 131.648 M378.646 131.651 C 380.138 133.447,380.263 133.563,379.856 132.767 C 379.644 132.353,379.075 131.680,378.593 131.272 C 377.746 130.556,377.748 130.569,378.646 131.651 M88.422 132.067 C 88.919 132.709,89.401 133.167,89.493 133.085 C 89.585 133.003,89.178 132.478,88.589 131.917 L 87.518 130.899 88.422 132.067 M151.065 133.895 C 151.066 135.543,151.132 136.171,151.211 135.290 C 151.290 134.409,151.289 133.060,151.209 132.293 C 151.128 131.526,151.063 132.247,151.065 133.895 M138.693 133.521 C 138.695 134.757,138.765 135.217,138.848 134.544 C 138.932 133.871,138.930 132.859,138.844 132.297 C 138.759 131.734,138.691 132.285,138.693 133.521 M291.519 136.517 C 291.518 138.371,291.581 139.176,291.659 138.307 C 291.738 137.438,291.739 135.921,291.662 134.936 C 291.584 133.952,291.520 134.663,291.519 136.517 M303.861 135.768 C 303.863 137.004,303.933 137.464,304.017 136.791 C 304.100 136.118,304.098 135.107,304.013 134.544 C 303.927 133.981,303.859 134.532,303.861 135.768 M120.332 135.768 C 120.335 136.798,120.407 137.175,120.493 136.605 C 120.580 136.036,120.577 135.193,120.488 134.733 C 120.399 134.272,120.329 134.738,120.332 135.768 M322.192 135.768 C 322.196 136.592,322.273 136.885,322.362 136.419 C 322.452 135.953,322.448 135.279,322.355 134.921 C 322.261 134.563,322.188 134.944,322.192 135.768 M380.237 135.581 C 380.237 136.301,380.314 136.596,380.408 136.236 C 380.502 135.875,380.502 135.286,380.408 134.925 C 380.314 134.565,380.237 134.860,380.237 135.581 M108.368 139.888 C 108.369 141.536,108.435 142.163,108.514 141.282 C 108.594 140.401,108.592 139.053,108.512 138.286 C 108.431 137.519,108.367 138.240,108.368 139.888 M120.701 139.700 C 120.701 140.627,120.774 141.007,120.864 140.543 C 120.953 140.080,120.953 139.321,120.864 138.858 C 120.774 138.394,120.701 138.773,120.701 139.700 M378.864 139.607 C 378.054 140.641,377.989 140.815,378.617 140.266 C 379.368 139.610,380.359 138.202,380.069 138.202 C 380.011 138.202,379.468 138.834,378.864 139.607 M290.877 144.274 C 290.750 144.745,290.662 145.468,290.679 145.880 C 290.697 146.292,290.866 145.972,291.055 145.168 C 291.420 143.612,291.264 142.828,290.877 144.274 M303.458 144.569 C 303.458 145.290,303.535 145.585,303.629 145.225 C 303.723 144.864,303.723 144.274,303.629 143.914 C 303.535 143.553,303.458 143.848,303.458 144.569 M121.430 146.442 C 121.426 146.957,121.558 147.800,121.723 148.315 C 122.126 149.573,122.126 148.214,121.723 146.629 C 121.466 145.620,121.436 145.601,121.430 146.442 M303.047 147.067 C 303.019 147.513,302.899 148.188,302.781 148.565 C 302.577 149.214,302.588 149.215,302.993 148.585 C 303.228 148.218,303.348 147.544,303.259 147.087 C 303.098 146.256,303.098 146.255,303.047 147.067 M301.916 152.497 C 301.892 152.841,301.776 153.431,301.657 153.808 C 301.453 154.459,301.464 154.460,301.870 153.827 C 302.105 153.460,302.222 152.870,302.129 152.516 C 301.976 151.936,301.955 151.935,301.916 152.497 M287.246 159.041 C 287.040 159.584,286.940 160.098,287.025 160.183 C 287.110 160.268,287.359 159.824,287.578 159.195 C 288.065 157.798,287.771 157.661,287.246 159.041 M270.585 189.981 C 270.008 190.857,269.775 191.375,270.067 191.134 C 270.630 190.669,272.064 188.390,271.794 188.390 C 271.707 188.390,271.163 189.106,270.585 189.981 M280.988 196.838 C 280.527 197.541,280.150 198.243,280.150 198.396 C 280.150 198.550,280.586 198.034,281.119 197.249 C 281.653 196.464,282.030 195.763,281.958 195.691 C 281.885 195.618,281.449 196.135,280.988 196.838 M135.206 203.184 C 135.844 204.110,136.450 204.869,136.553 204.869 C 136.656 204.869,136.218 204.110,135.581 203.184 C 134.943 202.257,134.337 201.498,134.234 201.498 C 134.131 201.498,134.568 202.257,135.206 203.184 M298.920 207.749 C 298.896 208.819,299.006 209.774,299.164 209.871 C 299.322 209.969,299.398 209.347,299.332 208.489 C 299.137 205.969,298.966 205.662,298.920 207.749 M300.749 212.172 C 301.448 212.893,302.104 213.483,302.207 213.483 C 302.310 213.483,301.822 212.893,301.124 212.172 C 300.425 211.451,299.769 210.861,299.666 210.861 C 299.563 210.861,300.050 211.451,300.749 212.172 M303.745 214.368 C 303.745 214.471,304.251 214.916,304.869 215.356 C 305.487 215.796,305.993 216.072,305.993 215.969 C 305.993 215.866,305.487 215.421,304.869 214.981 C 304.251 214.541,303.745 214.265,303.745 214.368 M148.127 223.970 C 148.447 224.588,148.793 225.094,148.896 225.094 C 148.999 225.094,148.821 224.588,148.502 223.970 C 148.182 223.352,147.837 222.846,147.734 222.846 C 147.631 222.846,147.808 223.352,148.127 223.970 M93.820 224.939 L 92.697 225.905 93.914 225.099 C 94.583 224.656,95.131 224.221,95.131 224.132 C 95.131 223.851,94.972 223.949,93.820 224.939 M259.219 234.894 C 259.196 235.238,259.079 235.828,258.960 236.205 C 258.756 236.856,258.767 236.857,259.173 236.224 C 259.408 235.857,259.525 235.267,259.432 234.913 C 259.280 234.333,259.259 234.332,259.219 234.894 M334.457 236.891 C 335.155 237.406,335.820 237.827,335.934 237.826 C 336.288 237.823,333.917 235.983,333.541 235.969 C 333.347 235.961,333.759 236.376,334.457 236.891 M166.004 237.828 C 166.004 238.549,166.082 238.844,166.176 238.483 C 166.270 238.123,166.270 237.533,166.176 237.172 C 166.082 236.812,166.004 237.107,166.004 237.828 M245.927 238.998 C 245.602 240.624,245.633 244.489,245.974 244.696 C 246.128 244.790,246.261 243.283,246.269 241.347 C 246.285 237.453,246.264 237.311,245.927 238.998 M346.231 239.045 L 345.131 240.262 346.348 239.162 C 347.018 238.557,347.566 238.009,347.566 237.945 C 347.566 237.656,347.257 237.910,346.231 239.045 M258.112 242.198 C 258.079 242.850,257.955 243.693,257.837 244.070 C 257.634 244.718,257.645 244.719,258.047 244.093 C 258.282 243.728,258.406 242.885,258.323 242.220 L 258.172 241.011 258.112 242.198 M160.300 248.689 L 158.240 248.942 160.112 248.997 C 161.142 249.027,162.238 248.889,162.547 248.689 C 162.856 248.489,162.940 248.351,162.734 248.381 C 162.528 248.412,161.433 248.550,160.300 248.689 M251.030 248.957 C 251.596 249.043,252.523 249.043,253.090 248.957 C 253.656 248.872,253.193 248.801,252.060 248.801 C 250.927 248.801,250.463 248.872,251.030 248.957 M182.678 267.322 C 195.501 267.377,216.484 267.377,229.307 267.322 C 242.130 267.267,231.639 267.223,205.993 267.223 C 180.346 267.223,169.855 267.267,182.678 267.322 M154.040 273.221 C 154.043 274.251,154.115 274.628,154.201 274.059 C 154.287 273.489,154.285 272.647,154.196 272.186 C 154.107 271.725,154.037 272.191,154.040 273.221 M257.848 273.408 C 257.848 274.671,257.913 274.816,258.195 274.185 C 258.407 273.709,258.407 273.108,258.195 272.631 C 257.913 272.000,257.848 272.146,257.848 273.408 M185.955 279.694 C 208.874 279.791,212.054 279.872,211.236 280.339 C 210.721 280.632,210.468 280.871,210.674 280.870 C 210.880 280.869,211.639 280.545,212.360 280.150 C 213.660 279.438,213.463 279.433,186.704 279.507 L 159.738 279.583 185.955 279.694 M251.498 279.976 C 250.562 280.427,250.530 280.479,251.311 280.288 C 252.372 280.029,253.565 279.421,252.996 279.429 C 252.790 279.432,252.116 279.678,251.498 279.976 M233.521 285.968 C 232.584 286.419,232.553 286.471,233.333 286.281 C 234.395 286.021,235.587 285.413,235.019 285.422 C 234.813 285.425,234.139 285.671,233.521 285.968 M193.446 286.343 C 192.509 286.794,192.478 286.846,193.258 286.655 C 194.320 286.396,195.513 285.788,194.944 285.796 C 194.738 285.799,194.064 286.045,193.446 286.343 M216.667 291.586 C 215.730 292.037,215.699 292.089,216.479 291.899 C 217.541 291.639,218.734 291.031,218.165 291.040 C 217.959 291.043,217.285 291.289,216.667 291.586 M240.262 301.324 C 239.326 301.775,239.294 301.827,240.075 301.636 C 241.136 301.377,242.329 300.769,241.760 300.777 C 241.554 300.780,240.880 301.026,240.262 301.324 M237.172 302.259 C 235.918 302.763,236.153 303.019,237.453 302.566 C 238.071 302.350,238.577 302.106,238.577 302.023 C 238.577 301.801,238.121 301.878,237.172 302.259 M257.865 303.933 C 257.865 304.820,257.989 305.352,258.140 305.114 C 258.292 304.876,258.415 304.345,258.415 303.933 C 258.415 303.521,258.292 302.989,258.140 302.751 C 257.989 302.513,257.865 303.045,257.865 303.933 M178.464 304.320 C 177.528 304.771,177.497 304.823,178.277 304.633 C 179.338 304.373,180.531 303.765,179.963 303.774 C 179.757 303.777,179.082 304.023,178.464 304.320 M168.352 307.691 C 167.415 308.142,167.384 308.194,168.165 308.003 C 169.226 307.744,170.419 307.136,169.850 307.144 C 169.644 307.147,168.970 307.393,168.352 307.691 M158.790 310.261 C 159.242 310.463,160.030 310.455,160.764 310.239 C 161.904 309.905,161.854 309.883,160.012 309.903 C 158.525 309.920,158.224 310.008,158.790 310.261 M177.341 322.298 C 176.404 322.749,176.373 322.801,177.154 322.610 C 178.215 322.351,179.408 321.743,178.839 321.751 C 178.633 321.754,177.959 322.000,177.341 322.298 M164.139 326.603 C 162.884 327.108,163.119 327.364,164.419 326.910 C 165.037 326.695,165.543 326.451,165.543 326.368 C 165.543 326.146,165.087 326.222,164.139 326.603 M249.229 329.047 C 248.514 329.620,248.514 329.624,249.251 329.285 C 249.663 329.095,250.253 328.846,250.562 328.732 C 251.047 328.552,251.044 328.520,250.540 328.494 C 250.219 328.478,249.629 328.727,249.229 329.047 M193.820 329.788 C 192.884 330.240,192.852 330.292,193.633 330.101 C 194.694 329.841,195.887 329.233,195.318 329.242 C 195.112 329.245,194.438 329.491,193.820 329.788 M154.120 332.959 C 153.978 333.606,153.939 334.214,154.035 334.309 C 154.130 334.405,154.316 333.945,154.448 333.287 C 154.760 331.725,154.457 331.423,154.120 332.959 M257.865 334.644 C 257.865 335.532,257.989 336.063,258.140 335.826 C 258.292 335.588,258.415 335.056,258.415 334.644 C 258.415 334.232,258.292 333.701,258.140 333.463 C 257.989 333.225,257.865 333.757,257.865 334.644 M188.046 341.708 C 188.132 341.782,188.708 341.955,189.326 342.094 C 190.146 342.277,190.298 342.242,189.888 341.965 C 189.382 341.622,187.670 341.383,188.046 341.708 M222.472 341.965 C 222.062 342.242,222.213 342.277,223.034 342.094 C 224.411 341.785,224.710 341.571,223.752 341.579 C 223.357 341.582,222.781 341.756,222.472 341.965 M160.300 342.682 C 160.815 343.114,161.573 343.642,161.985 343.856 C 162.496 344.121,162.437 343.996,161.798 343.460 C 161.283 343.029,160.524 342.500,160.112 342.286 C 159.601 342.021,159.661 342.147,160.300 342.682 M194.788 342.831 C 194.874 342.905,195.787 343.063,196.816 343.182 C 198.021 343.321,198.422 343.283,197.940 343.074 C 197.225 342.764,194.463 342.551,194.788 342.831 M215.169 343.081 C 214.668 343.302,214.979 343.339,216.105 343.190 C 217.032 343.067,217.860 342.906,217.946 342.832 C 218.272 342.550,215.884 342.764,215.169 343.081 M205.337 343.721 C 206.316 343.798,207.917 343.798,208.895 343.721 C 209.874 343.644,209.073 343.581,207.116 343.581 C 205.159 343.581,204.359 343.644,205.337 343.721 M229.588 352.809 C 228.817 353.056,228.784 353.114,229.401 353.140 C 229.813 353.158,230.403 353.009,230.712 352.809 C 231.368 352.385,230.912 352.385,229.588 352.809 M186.142 353.915 C 186.451 354.125,187.027 354.298,187.422 354.301 C 188.380 354.309,188.081 354.095,186.704 353.787 C 185.884 353.603,185.732 353.638,186.142 353.915 M224.719 353.933 C 223.948 354.180,223.915 354.238,224.532 354.264 C 224.944 354.281,225.534 354.132,225.843 353.933 C 226.499 353.508,226.043 353.508,224.719 353.933 M192.135 355.039 C 192.444 355.248,193.020 355.422,193.414 355.425 C 194.373 355.433,194.074 355.218,192.697 354.910 C 191.876 354.727,191.725 354.761,192.135 355.039 M218.914 355.056 C 218.442 355.259,218.372 355.378,218.727 355.378 C 219.036 355.378,219.625 355.233,220.037 355.056 C 220.510 354.853,220.579 354.734,220.225 354.734 C 219.916 354.734,219.326 354.879,218.914 355.056 M196.540 355.696 C 197.006 355.785,197.680 355.782,198.038 355.688 C 198.396 355.594,198.015 355.521,197.191 355.525 C 196.367 355.529,196.074 355.606,196.540 355.696 M214.517 355.696 C 214.983 355.785,215.658 355.782,216.016 355.688 C 216.374 355.594,215.993 355.521,215.169 355.525 C 214.345 355.529,214.052 355.606,214.517 355.696 M202.903 356.084 C 204.602 356.153,207.383 356.153,209.082 356.084 C 210.782 356.014,209.391 355.958,205.993 355.958 C 202.594 355.958,201.203 356.014,202.903 356.084 " stroke="none" fill="#fcded0" fill-rule="evenodd"></path></g></svg>